<?xml version="1.0" ?>
<!DOCTYPE svg  PUBLIC '-//W3C//DTD SVG 1.1//EN'  'http://www.w3.org/Graphics/SVG/1.1/DTD/svg11.dtd'>
<!-- Uploaded to: SVG Repo, www.svgrepo.com, Generator: SVG Repo Mixer Tools -->
<svg fill="#000000" width="800px" height="800px" viewBox="0 0 512 512" enable-background="new 0 0 512 512" id="Good_x5F_relationship" version="1.1" xml:space="preserve" xmlns="http://www.w3.org/2000/svg" xmlns:xlink="http://www.w3.org/1999/xlink">
<g>
<g>
<path d="M22.987,441.282v41.148h221.975h10h247.979v-45.383c0-16.825-5.782-33.331-16.282-46.477    c-10.501-13.146-25.32-22.436-41.729-26.154l-39.727-9.004l0.001-16.521c8.849-3.881,16.995-9.4,24.035-16.44    c8.72-8.721,15.335-19.483,19.124-31.114c0.934-2.842,1.695-5.732,2.296-8.658c13.089-1.674,23.24-12.875,23.24-26.412    c0-7.078-2.797-13.783-7.735-18.752v-61.079c0-36.447-31.26-67.359-68.84-68.763v-0.067h-0.154    c-4.672-5.572-11.558-8.839-18.926-8.85h-0.117c-0.088,0-0.176,0-0.266,0c-25.402,0-49.494,10.077-67.859,28.392    c-18.822,18.771-29.188,43.587-29.188,69.878v40.807c-4.743,4.935-7.431,11.526-7.431,18.434    c0,13.535,10.148,24.734,23.234,26.412c0.6,2.924,1.361,5.812,2.293,8.65c7.203,22.041,23.416,39.152,43.787,47.844v16.24    l-39.726,9.004c-13.131,2.977-25.237,9.527-34.934,18.759c0.147-1.711,0.239-3.431,0.239-5.157    c0-18.669-8.386-36.057-23.01-47.709c-4.746-3.776-7.468-9.381-7.468-15.377V213.158c0-26.857-10.586-52.15-29.807-71.219    c-18.868-18.72-43.665-28.89-69.807-28.708c-26.103,0.206-50.642,10.484-69.096,28.939    c-18.668,18.659-28.949,43.476-28.949,69.878v102.415c0,6.074-2.776,11.727-7.615,15.507    c-14.915,11.634-23.469,29.146-23.469,48.05c0,15.832,6.233,31.101,17.201,42.412C24.136,427.014,22.987,434.022,22.987,441.282z     M244.962,472.431H32.987v-31.148c0-26.894,18.318-49.828,44.546-55.772l42.939-9.732l0.001-19.205    c5.837,1.423,11.926,2.196,18.195,2.196c6.486,0,12.784-0.816,18.806-2.338l-0.001,19.347l42.941,9.732    c10.803,2.448,20.258,7.784,27.649,15.086c-17.229,8.855-36.392,13.526-55.81,13.526h-118.9v10h118.9    c21.775,0,43.262-5.412,62.42-15.686c6.531,9.338,10.287,20.684,10.287,32.846V472.431z M71.855,319.777    c3.621,6.373,8.124,12.179,13.348,17.251v9.801c0,8.774,1.096,17.48,3.23,25.957l-12.278,2.782    c-2.851-9.232-4.3-18.786-4.3-28.466V319.777z M98.186,370.575c-1.973-7.751-2.982-15.717-2.982-23.746v-1.588    c4.734,3.262,9.854,5.996,15.271,8.143v14.406L98.186,370.575z M203.792,371.017c-0.268,1.601-0.572,3.205-0.904,4.806    c-0.088-0.021-0.174-0.046-0.263-0.065l-13.225-2.998c2.13-8.467,3.224-17.164,3.224-25.93v-10.268    c5.017-4.957,9.345-10.604,12.854-16.777v30.874C205.478,357.464,204.91,364.313,203.792,371.017z M182.624,346.829    c0,8.021-1.009,15.977-2.977,23.72l-12.173-2.759v-14.648c5.38-2.185,10.454-4.961,15.149-8.25V346.829z M452.073,272.188    c0.119-1.771,0.191-3.548,0.191-5.333v-2.077c5.026-1.875,9.127-5.595,11.539-10.282c0.063,0.585,0.097,1.175,0.097,1.77    C463.9,263.769,458.908,270.12,452.073,272.188z M456.165,176.436v68.41c0,3.342-1.505,6.402-3.9,8.491v-5.57    c0-8.381-2.492-16.474-7.212-23.411c-1.763-2.581-3.132-5.432-4.07-8.473c-0.928-3.008-1.397-6.135-1.397-9.296v-10.37    c0-15.665-12.75-28.41-28.383-28.41l-11.502-0.084c2.141-6.157,3.254-12.685,3.254-19.226v-25c0-1.828-0.199-3.633-0.588-5.389    C432.223,121.863,456.165,147.041,456.165,176.436z M290.814,197.025c0-23.615,9.322-45.917,26.25-62.798    c16.478-16.433,38.06-25.473,60.813-25.473c0.078,0,0.159,0,0.237,0h0.123c4.946,0.007,9.537,2.48,12.281,6.614    c1.594,2.403,2.436,5.213,2.436,8.126v25c0,7.706-1.762,15.075-5.234,21.899c-8.309,16.297-24.818,26.421-43.086,26.421    c-13.264,0-25.725,5.163-35.085,14.534c-9.372,9.374-14.534,21.83-14.534,35.076v6.043c-2.617-2.468-4.2-5.957-4.2-9.773V197.025z     M283.384,256.267c0-0.839,0.086-1.666,0.21-2.485c2.474,4.62,6.458,8.344,11.421,10.458v2.616c0,1.784,0.072,3.562,0.191,5.331    C288.374,270.116,283.384,263.767,283.384,256.267z M308.415,288.214c-2.256-6.863-3.4-14.049-3.4-21.358v-20.43    c0-10.575,4.121-20.52,11.607-28.007c7.474-7.482,17.422-11.603,28.012-11.603c20.998,0,40.07-11.082,50.5-29.128l16.031,0.118    c10.156,0,18.42,8.259,18.42,18.41v10.37c0,4.161,0.619,8.28,1.842,12.243c1.233,4,3.039,7.757,5.363,11.16    c3.582,5.263,5.475,11.41,5.475,17.777v19.09c0,7.309-1.145,14.495-3.404,21.371c-3.308,10.151-9.08,19.542-16.691,27.153    c-12.965,12.965-30.198,20.105-48.524,20.105C343.868,335.485,317.655,316.491,308.415,288.214z M373.645,345.485    c7.397,0,14.633-1.036,21.56-3.001v13.892l-21.252,11.088l-21.255-11.088l0.001-13.716    C359.401,344.502,366.431,345.485,373.645,345.485z M305.184,374.17l41.829-9.481l26.939,14.055l26.938-14.055l41.83,9.481    c29.57,6.702,50.222,32.558,50.222,62.878v35.383h-42.494v-29.143h-10v29.143H306.205v-29.143h-10v29.143h-41.243v-31.148v-4.234    C254.962,406.728,275.614,380.872,305.184,374.17z M19.059,378.019c0-15.801,7.15-30.439,19.622-40.168    c7.284-5.689,11.462-14.215,11.462-23.389V212.047c0-23.73,9.24-46.035,26.02-62.806c16.588-16.588,38.644-25.826,62.104-26.011    c23.454-0.221,45.724,8.979,62.685,25.807c17.314,17.177,26.85,39.949,26.85,64.121v101.775c0,9.061,4.098,17.518,11.239,23.2    c12.227,9.741,19.238,24.279,19.238,39.886c0,11.731-3.901,22.764-11.092,31.734c-7.361-13.936-19.535-25.01-34.706-30.955    c0.438-2.04,0.833-4.09,1.175-6.135c1.209-7.246,1.822-14.649,1.822-22.005v-82.827c0-30.566-19.57-57.271-48.697-66.451    l-3.006,9.537c24.944,7.862,41.703,30.734,41.703,56.914v14.128c0,36.839-29.97,66.81-66.809,66.81s-66.81-29.971-66.81-66.81    h-0.004v-12.757c0-21.864,12.716-41.925,32.446-51.28l0.559-0.257c23.572-10.857,38.804-34.652,38.804-60.62v-8.555h-10v8.555    c0,21.863-12.7,41.915-32.408,51.266l-0.589,0.271c-23.577,10.868-38.812,34.663-38.812,60.619v77.9    c0,10.633,1.587,21.127,4.703,31.27c-15.839,5.893-28.516,17.341-36.026,31.816C23.182,401.162,19.059,389.778,19.059,378.019z"/>
<path d="M129.961,309.755l-9.025,4.305c3.298,6.913,10.379,11.38,18.04,11.38c7.654,0,14.734-4.466,18.038-11.376l-9.021-4.313    c-1.652,3.455-5.191,5.688-9.017,5.688C135.147,315.439,131.608,313.208,129.961,309.755z"/>
<path d="M110.676,262.421L110.676,262.421c-2.65,0-4.799,2.148-4.799,4.799v5.76c0,2.65,2.148,4.799,4.799,4.799l0,0    c2.649,0,4.798-2.148,4.798-4.799v-5.76C115.474,264.569,113.325,262.421,110.676,262.421z"/>
<path d="M166.658,277.778c2.649,0,4.798-2.148,4.798-4.799v-5.76c0-2.65-2.148-4.799-4.798-4.799c-2.65,0-4.799,2.148-4.799,4.799    v5.76C161.859,275.63,164.008,277.778,166.658,277.778z"/>
<path d="M392.34,299.345l-9.021-4.314c-1.716,3.588-5.389,5.905-9.358,5.905c-3.975,0-7.647-2.316-9.357-5.901l-9.025,4.307    c3.361,7.043,10.576,11.595,18.383,11.595C381.759,310.936,388.974,306.386,392.34,299.345z"/>
<path d="M344.942,246.449c-2.717,0-4.92,2.203-4.92,4.92v5.906c0,2.717,2.203,4.92,4.92,4.92c2.718,0,4.92-2.203,4.92-4.92v-5.906    C349.862,248.652,347.66,246.449,344.942,246.449z"/>
<path d="M402.342,262.195L402.342,262.195c2.718,0,4.92-2.203,4.92-4.92v-5.906c0-2.717-2.202-4.92-4.92-4.92l0,0    c-2.718,0-4.921,2.203-4.921,4.92v5.906C397.421,259.992,399.624,262.195,402.342,262.195z"/>
<path d="M285.655,29.733c-9.592-0.943-19.159,2.207-26.252,8.638c-2.423,2.197-4.492,4.713-6.169,7.457    c-1.676-2.744-3.746-5.26-6.169-7.458c-7.092-6.43-16.661-9.579-26.252-8.637c-15.183,1.49-27.556,13.001-30.088,27.992    c-0.282,1.67-0.445,3.377-0.483,5.074c-0.167,7.512,2.468,15.067,7.418,21.273l6.56,8.224l39.27,42.677    c2.407,2.925,5.947,4.599,9.745,4.599l0,0c3.798,0,7.339-1.674,9.746-4.599l39.038-42.408l6.79-8.492    c4.951-6.207,7.585-13.762,7.418-21.274c-0.037-1.691-0.2-3.398-0.482-5.074C313.211,42.734,300.838,31.224,285.655,29.733z     M300.991,77.838l-6.449,8.085l-39.023,42.392l-0.23,0.269c-0.687,0.86-1.581,0.989-2.054,0.989c-0.472,0-1.366-0.128-2.053-0.988    l-39.255-42.661l-6.449-8.085c-3.492-4.379-5.353-9.641-5.238-14.814c0.027-1.214,0.145-2.436,0.347-3.631    c1.782-10.553,10.502-18.656,21.204-19.707c6.887-0.678,13.479,1.488,18.559,6.094c5.012,4.544,7.886,11.027,7.886,17.787v6.878    h10v-6.878c0-6.76,2.874-13.243,7.886-17.787c5.08-4.605,11.672-6.771,18.559-6.094c10.702,1.05,19.422,9.154,21.205,19.706    c0.202,1.2,0.318,2.421,0.346,3.631C306.345,68.197,304.484,73.458,300.991,77.838z"/>
</g>
</g>
</svg>